<svg width="555" height="139" viewBox="0 0 555 139" fill="none" xmlns="http://www.w3.org/2000/svg">
<path d="M83.25 0V27.75H55.5V0H83.25ZM111 0V27.75H83.25V0H111ZM166.5 27.75V55.5H138.75V27.75H166.5ZM166.5 55.5V83.25H138.75V55.5H166.5ZM166.5 83.25V111H138.75V83.25H166.5ZM111 111V138.75H83.25V111H111ZM83.25 111V138.75H55.5V111H83.25ZM83.25 55.5V83.25H55.5V55.5H83.25ZM111 55.5V83.25H83.25V55.5H111ZM55.5 83.25V111H27.75V83.25H55.5ZM138.75 0V27.75H111V0H138.75ZM138.75 55.5V83.25H111V55.5H138.75ZM138.75 111V138.75H111V111H138.75ZM55.5 55.5V83.25H27.75V55.5H55.5ZM55.5 111V138.75H27.75V111H55.5ZM27.75 83.25V111H0V83.25H27.75ZM166.5 111V138.75H138.75V111H166.5ZM138.75 27.75V55.5H111V27.75H138.75ZM138.75 83.25V111H111V83.25H138.75ZM83.25 83.25V111H55.5V83.25H83.25ZM55.5 0V27.75H27.75V0H55.5ZM277.5 27.75V55.5H249.75V27.75H277.5ZM277.5 55.5V83.25H249.75V55.5H277.5ZM277.5 83.25V111H249.75V83.25H277.5ZM277.5 111V138.75H249.75V111H277.5ZM305.25 0V27.75H277.5V0H305.25ZM333 0V27.75H305.25V0H333ZM249.75 0V27.75H222V0H249.75ZM222 0V27.75H194.25V0H222ZM249.75 27.75V55.5H222V27.75H249.75ZM249.75 55.5V83.25H222V55.5H249.75ZM249.75 83.25V111H222V83.25H249.75ZM249.75 111V138.75H222V111H249.75ZM333 27.75V55.5H305.25V27.75H333ZM360.75 0V27.75H333V0H360.75ZM360.75 27.75V55.5H333V27.75H360.75ZM416.25 55.5V83.25H388.5V55.5H416.25ZM416.25 83.25V111H388.5V83.25H416.25ZM444 111V138.75H416.25V111H444ZM471.75 111V138.75H444V111H471.75ZM444 0V27.75H416.25V0H444ZM416.25 27.75V55.5H388.5V27.75H416.25ZM471.75 0V27.75H444V0H471.75ZM499.5 0V27.75H471.75V0H499.5ZM499.5 111V138.75H471.75V111H499.5ZM444 27.75V55.5H416.25V27.75H444ZM444 55.5V83.25H416.25V55.5H444ZM444 83.25V111H416.25V83.25H444ZM527.25 111V138.75H499.5V111H527.25ZM527.25 0V27.75H499.5V0H527.25ZM555 27.75V55.5H527.25V27.75H555ZM555 111V138.75H527.25V111H555Z" fill="black"/>
</svg>
